<svg height="800" width="800" xmlns="http://www.w3.org/2000/svg" viewBox="-143 145 512 512" xml:space="preserve">
  <path d="M329 145h-432c-22.1 0-40 17.9-40 40v432c0 22.1 17.9 40 40 40h432c22.1 0 40-17.9 40-40V185c0-22.1-17.9-40-40-40zm10 472c0 5.5-4.5 10-10 10h-432c-5.5 0-10-4.5-10-10V185c0-5.5 4.5-10 10-10h432c5.5 0 10 4.5 10 10v432z"/>
  <path d="M196.9 311.2H29.1s-44.1 0-44.1 44.1v91.5s0 44.1 44.1 44.1h167.8s44.1 0 44.1-44.1v-91.5s0-44.1-44.1-44.1zm-118 139.1v-98.5l83.8 49.3-83.8 49.2z"/>
</svg>
